<svg xmlns="http://www.w3.org/2000/svg" xmlns:xlink="http://www.w3.org/1999/xlink" viewBox="0 0 348.91 438.1"><defs><style>.cls-1{fill:#212529;}.cls-2{fill:url(#linear-gradient);}.cls-3{fill:#fefefe;}</style><linearGradient id="linear-gradient" x1="174.02" y1="110.2" x2="174.02" y2="417.54" gradientUnits="userSpaceOnUse"><stop offset="0" stop-color="#97cafc"/><stop offset="0.09" stop-color="#73b8fb"/><stop offset="0.15" stop-color="#5faefa"/><stop offset="0.25" stop-color="#49a3f9"/><stop offset="0.37" stop-color="#3699f9"/><stop offset="0.52" stop-color="#2891f8"/><stop offset="0.69" stop-color="#1f8df8"/><stop offset="1" stop-color="#1d8cf8"/></linearGradient></defs><title>Asset 1</title><g id="Layer_2" data-name="Layer 2"><g id="Layer_1-2" data-name="Layer 1"><path class="cls-1" d="M285.17,90.62c1.95-11.5-1.15-23.56-11.87-36.37C262.13,40.9,265,23.48,278.51,10.42c14.1-13.65,32.77-13.94,47.55-.57C340,22.43,343.9,40,332.19,53.23c-13.62,15.41-12.65,31.65-12.88,49-.15,12,.35,24-.38,35.92-1.08,17.92,2.87,33.4,11.69,49.86,54.21,101.2-18.62,235-133,248.81C104.25,448,20,386.33,3,295-13.59,206.58,40.68,121.46,130.33,96c44-12.51,86.46-5.41,126.82,15.05C284.81,125.07,284.67,125.34,285.17,90.62Zm34.39,128.25c-1.43,29.7,4.49,56.57-11.63,77-23.59,29.85-43.35,63.13-74,87.22-9.8,7.71-16.93,5.34-23.52-2.51-7.94-9.46-26.78-17.9-14.66-32.25,14.14-16.75,29.21-34.57,50.42-43.65,22.1-9.46,36-27.56,36.27-51.27.35-28.17-.28-56.35.31-84.5.21-10.16-3.42-16.82-10.95-23.42C211.49,92.6,114.37,100,58.77,162.12,13.79,212.36,8.12,288.81,45,348.56c33.7,54.68,104.16,80.36,170,64.2C303.7,391,345.83,292.25,319.56,218.87Zm-96.94,155c28.65-13.42,37.38-44.15,58.31-63.8,18-16.86,25.79-35.83,25.72-59.71-.15-54.24.46-108.49.33-162.74,0-13.77,1.48-25.54,12.41-36.27,10.16-10,10.18-23.14-1.77-33.27-9.88-8.36-21.18-8.92-30.34.56C277.18,29.09,276,41.74,287,52.34c9.13,8.82,10.89,18.88,10.67,30.58-1.06,55.64-2.46,111.3-2.38,167,0,22.32-8.48,38.8-24.26,53.66-15.1,14.22-36,19-50.14,35.52C204,358.76,202.26,357.3,222.62,373.86Z"/><path class="cls-2" d="M319.56,218.87C345.83,292.25,303.7,391,214.92,412.76c-65.81,16.16-136.27-9.52-170-64.2C8.12,288.81,13.79,212.36,58.77,162.12c55.6-62.11,152.72-69.52,213-16.66,7.53,6.6,11.16,13.26,10.95,23.42-.59,28.15,0,56.33-.31,84.5-.29,23.71-14.17,41.81-36.27,51.27-21.21,9.08-36.28,26.9-50.42,43.65-12.12,14.35,6.72,22.79,14.66,32.25,6.59,7.85,13.72,10.22,23.52,2.51,30.64-24.09,50.4-57.37,74-87.22C324.05,275.44,318.13,248.57,319.56,218.87ZM175.61,320.93c30.76-.63,55.5-26.44,55-57.42-.44-30.3-26.48-55.7-57.18-55.79-29.13-.09-56.26,28.08-55.54,57.65C118.66,295.48,145.71,321.53,175.61,320.93ZM51.92,220c16-31.51,38.75-56,70.07-71.9,1.26-.64,2.22-3.78,1.82-5.39-.79-3.22-3.81-3.27-6.7-3C93.3,142.06,50.83,191.22,51.92,220ZM77,228.42c1.15-.73,2.88-1.2,3.39-2.25,11.22-23.51,27.76-41.84,51.18-53.78,2.54-1.3,3.25-4.61,1.71-7.4-1.68-3.06-4.36-2.69-7.1-1.37-25,12-43.25,30.59-54,56.27C70.09,224.71,71,228.06,77,228.42Zm68.3-36.53c-.64-5-3.55-5.58-7.49-4.93-11.87,1.93-39.46,29.72-41.66,42.5-.42,2.43-.11,6.23,1.43,7.51,3.6,3,6.62-.05,8.27-3.14,8.45-15.83,19.66-28.9,35.72-37.48C143.21,195.47,144.16,193.28,145.29,191.89Z"/><path class="cls-3" d="M222.62,373.86c-20.36-16.56-18.65-15.1-1.76-34.81,14.16-16.52,35-21.3,50.14-35.52,15.78-14.86,24.29-31.34,24.26-53.66-.08-55.65,1.32-111.31,2.38-166.95.22-11.7-1.54-21.76-10.67-30.58-11-10.6-9.79-23.25.31-33.71,9.16-9.48,20.46-8.92,30.34-.56,11.95,10.13,11.93,23.3,1.77,33.27C308.46,62.07,307,73.84,307,87.61c.13,54.25-.48,108.5-.33,162.74.07,23.88-7.76,42.85-25.72,59.71C260,329.71,251.27,360.44,222.62,373.86Z"/><path class="cls-1" d="M175.61,320.93c-29.9.6-57-25.45-57.68-55.56-.72-29.57,26.41-57.74,55.54-57.65,30.7.09,56.74,25.49,57.18,55.79C231.11,294.49,206.37,320.3,175.61,320.93Zm42.71-56.72c-.15-23.77-20.22-43.74-44.35-44.12-22.8-.36-44.22,21.43-43.92,44.68.31,23.73,20.79,43.72,44.86,43.8C199.19,308.66,218.49,288.93,218.32,264.21Z"/><path class="cls-1" d="M51.92,220c-1.09-28.76,41.38-77.92,65.19-80.27,2.89-.29,5.91-.24,6.7,3,.4,1.61-.56,4.75-1.82,5.39C90.67,164,68,188.47,51.92,220Z"/><path class="cls-1" d="M77,228.42c-6-.36-6.9-3.71-4.87-8.53,10.8-25.68,29-44.25,54.05-56.27,2.74-1.32,5.42-1.69,7.1,1.37,1.54,2.79.83,6.1-1.71,7.4-23.42,11.94-40,30.27-51.18,53.78C79.87,227.22,78.14,227.69,77,228.42Z"/><path class="cls-1" d="M145.29,191.89c-1.13,1.39-2.08,3.58-3.73,4.46-16.06,8.58-27.27,21.65-35.72,37.48-1.65,3.09-4.67,6.12-8.27,3.14-1.54-1.28-1.85-5.08-1.43-7.51,2.2-12.78,29.79-40.57,41.66-42.5C141.74,186.31,144.65,186.84,145.29,191.89Z"/><path class="cls-3" d="M218.32,264.21c.17,24.72-19.13,44.45-43.41,44.36-24.07-.08-44.55-20.07-44.86-43.8-.3-23.25,21.12-45,43.92-44.68C198.1,220.47,218.17,240.44,218.32,264.21ZM174.46,249c-9.53.78-15.72,5.8-15.61,15.7.11,8.74,5.58,14.45,14.48,14.67,9.93.24,15.63-5.32,15.56-15.46C188.82,254.82,183.61,250,174.46,249Z"/><path class="cls-1" d="M174.46,249c9.15,1,14.36,5.81,14.43,14.91.07,10.14-5.63,15.7-15.56,15.46-8.9-.22-14.37-5.93-14.48-14.67C158.74,254.81,164.93,249.79,174.46,249Z"/></g></g></svg>